<svg width="307" height="231" viewBox="0 0 307 231" fill="none" xmlns="http://www.w3.org/2000/svg">
<g clip-path="url(#clip0)">
<path opacity="0.1" d="M262.364 45.6642C264.212 63.2367 278.605 77.9656 292.197 87.8406C296.745 91.1475 301.655 94.5556 304.523 99.9945C308.027 106.631 307.41 114.458 305.165 120.398C301.074 131.227 291.921 138.122 281.333 138.335C272.198 138.522 262.41 134.061 253.328 134.57C238.127 135.41 228.124 149.808 221.663 165.056C217.095 175.842 212.667 188.447 202.503 191.136C195.352 193.035 186.871 189.308 179.71 183.651C176.251 180.919 172.841 177.653 169.052 176.46C166.803 175.751 164.578 175.837 162.454 176.143C143.038 178.952 130.213 199.183 110.452 200.608C97.1064 201.581 82.4894 193.541 70.5015 182.124C58.5136 170.707 48.7435 156.1 39.4811 141.452C32.8983 131.043 26.1837 119.636 25.1864 107.791C24.118 95.257 30.0079 84.7338 38.3239 79.5153C46.6398 74.2967 57.1026 73.6915 67.4385 74.8158C80.3654 76.216 94.1703 80.1002 105.341 75.1171C112.954 71.7241 118.433 64.5609 124.356 58.3169C134.253 47.8798 145.771 39.7316 157.33 31.7936C168.395 24.1975 179.662 16.6925 192.35 12.55C201.344 9.61032 210.9 10.6029 220.14 8.89628C226.165 7.78471 231.174 4.33859 237.503 4.18919C245.299 3.99169 254.919 7.33654 259.806 17.204C264.46 26.5751 261.382 36.3387 262.364 45.6642Z" fill="white" fill-opacity="0.67"/>
<path d="M218.315 3.76192L199.442 2.61843L188.522 1.83953V1.82019H188.387H188.235V1.84229L129.514 6.5378H124.645L124.073 26.7976L133.526 30.1286L139.254 59.2684L113.189 110.883L97.4388 122.815V134.192L106.892 143.351L107.464 185.257L110.329 185.81V185.365L111.769 185.641V185.807L167.71 204.611L170.061 206.205L174.98 203.142L214.604 180.258L218.315 3.76192ZM158.174 133.944L173.499 120.962L158.174 133.944ZM105.024 139.33L109.169 143.354V143.603L105.024 139.33Z" fill="white" fill-opacity="0.12"/>
<path d="M112.559 144.202L168.376 158.289L160.086 148.898L155.389 143.097L106.48 133.43L104.269 135.363L112.559 144.202Z" fill="#032222"/>
<path d="M104.269 135.363L159.257 148.069L159.533 134.811L143.783 128.734L112.283 123.486H103.164L104.269 135.363Z" fill="#D6D6E3"/>
<path d="M144.059 60.2352L200.152 63.8258V53.33L196.284 29.8524L194.35 28.1952L138.257 29.8524L144.059 60.2352Z" fill="#D6D6E3"/>
<path d="M130.796 7.47968H128.033L127.48 27.6428L136.599 30.9573L142.125 59.959L116.98 111.333L101.783 123.21V134.535L110.901 143.65L111.454 185.357L114.217 185.909L113.664 144.478L104.546 134.811L104.269 123.21L118.914 111.61L144.612 60.2352L139.086 30.9573L129.967 27.0904L130.796 7.47968Z" fill="#D6D6E3"/>
<path d="M128.586 7.47968H125.822L125.27 27.6428L134.388 30.9573L139.915 59.959L114.77 111.333L99.5719 123.21V134.535L108.69 143.65L109.243 185.357L112.006 185.909L111.454 144.478L102.335 134.811L102.059 123.21L117.256 111.61L142.402 60.2352L136.875 30.9573L127.757 27.0904L128.586 7.47968Z" fill="#032222"/>
<path d="M128.447 25.5712L129.829 27.5047L137.566 31.0953L198.909 29.4381L192.968 27.6428L186.613 24.8807L187.442 22.671L128.447 25.5712Z" fill="#A8A8A8"/>
<path d="M118.085 112.438L174.178 121.553L185.507 97.5231L200.981 62.9972L144.059 60.2351L118.085 112.438Z" fill="#053737"/>
<g opacity="0.1">
<path opacity="0.1" d="M147.099 70.1786L184.955 73.2169L165.336 111.886L128.586 106.362L147.099 70.1786Z" fill="white"/>
</g>
<g opacity="0.1">
<path opacity="0.1" d="M149.71 72.9876L151.382 73.123L150.517 74.8272L148.895 74.5841L149.71 72.9876Z" fill="white"/>
</g>
<g opacity="0.1">
<path opacity="0.1" d="M149.987 89.0076L151.658 89.143L150.793 90.8472L149.171 90.6041L149.987 89.0076Z" fill="white"/>
</g>
<g opacity="0.1">
<path opacity="0.1" d="M159.105 74.9211L160.777 75.0564L159.912 76.7606L158.29 76.5176L159.105 74.9211Z" fill="white"/>
</g>
<g opacity="0.1">
<path opacity="0.1" d="M176.513 75.7497L178.185 75.885L177.32 77.5892L175.698 77.3462L176.513 75.7497Z" fill="white"/>
</g>
<g opacity="0.1">
<path opacity="0.1" d="M153.026 77.9594L154.698 78.0947L153.833 79.7989L152.211 79.5558L153.026 77.9594Z" fill="white"/>
</g>
<g opacity="0.1">
<path opacity="0.1" d="M159.105 94.808L160.777 94.9433L159.912 96.6475L158.29 96.4045L159.105 94.808Z" fill="white"/>
</g>
<g opacity="0.1">
<path opacity="0.1" d="M144.184 85.1407L145.856 85.2761L144.991 86.9803L143.369 86.7372L144.184 85.1407Z" fill="white"/>
</g>
<g opacity="0.1">
<path opacity="0.1" d="M169.605 74.9211L171.277 75.0564L170.412 76.7606L168.79 76.5176L169.605 74.9211Z" fill="white"/>
</g>
<g opacity="0.1">
<path opacity="0.1" d="M156.342 84.3121L158.014 84.4474L157.149 86.1516L155.527 85.9086L156.342 84.3121Z" fill="white"/>
</g>
<g opacity="0.1">
<path opacity="0.1" d="M154.408 73.8163L156.079 73.9516L155.214 75.6558L153.592 75.4127L154.408 73.8163Z" fill="white"/>
</g>
<g opacity="0.1">
<path opacity="0.1" d="M162.974 83.4835L164.645 83.6188L163.78 85.323L162.158 85.08L162.974 83.4835Z" fill="white"/>
</g>
<g opacity="0.1">
<path opacity="0.1" d="M164.908 74.9211L166.58 75.0564L165.715 76.7606L164.093 76.5176L164.908 74.9211Z" fill="white"/>
</g>
<g opacity="0.1">
<path opacity="0.1" d="M147.5 78.788L149.171 78.9233L148.306 80.6275L146.684 80.3844L147.5 78.788Z" fill="white"/>
</g>
<path d="M103.164 123.487L157.875 134.535L172.946 121.354L118.224 112.024L103.164 123.487Z" fill="#D6D6E3"/>
<path d="M113.388 142.821V185.909L167.547 204.691L168.376 159.946L166.165 155.783L156.218 153.317L113.388 142.821Z" fill="#032222"/>
<path d="M120.434 117.41C121.731 117.41 122.783 116.792 122.783 116.029C122.783 115.266 121.731 114.648 120.434 114.648C119.137 114.648 118.085 115.266 118.085 116.029C118.085 116.792 119.137 117.41 120.434 117.41Z" fill="#575988"/>
<path d="M122.368 120.448C123.665 120.448 124.717 119.83 124.717 119.067C124.717 118.304 123.665 117.686 122.368 117.686C121.071 117.686 120.02 118.304 120.02 119.067C120.02 119.83 121.071 120.448 122.368 120.448Z" fill="#FA595F"/>
<path d="M115.737 119.62C117.034 119.62 118.085 119.001 118.085 118.239C118.085 117.476 117.034 116.858 115.737 116.858C114.439 116.858 113.388 117.476 113.388 118.239C113.388 119.001 114.439 119.62 115.737 119.62Z" fill="#FFD037"/>
<path d="M145.579 122.382C146.876 122.382 147.928 121.763 147.928 121.001C147.928 120.238 146.876 119.62 145.579 119.62C144.282 119.62 143.23 120.238 143.23 121.001C143.23 121.763 144.282 122.382 145.579 122.382Z" fill="#575988"/>
<path d="M140.882 124.868C142.179 124.868 143.231 124.249 143.231 123.486C143.231 122.724 142.179 122.105 140.882 122.105C139.585 122.105 138.533 122.724 138.533 123.486C138.533 124.249 139.585 124.868 140.882 124.868Z" fill="#FFD037"/>
<path d="M132.04 121.001C133.947 121.001 135.494 120.259 135.494 119.343C135.494 118.428 133.947 117.686 132.04 117.686C130.132 117.686 128.586 118.428 128.586 119.343C128.586 120.259 130.132 121.001 132.04 121.001Z" fill="#A8A8A8"/>
<path d="M148.066 125.42C149.363 125.42 150.415 124.802 150.415 124.039C150.415 123.276 149.363 122.658 148.066 122.658C146.769 122.658 145.717 123.276 145.717 124.039C145.717 124.802 146.769 125.42 148.066 125.42Z" fill="#FA595F"/>
<path d="M133.007 119.07H131.349L129.923 113.568C129.863 113.336 129.857 113.094 129.905 112.86C129.953 112.626 130.055 112.406 130.201 112.217C130.348 112.028 130.535 111.875 130.75 111.77C130.965 111.664 131.201 111.61 131.44 111.61C131.856 111.61 132.254 111.775 132.548 112.068C132.842 112.362 133.007 112.76 133.007 113.176V119.07Z" fill="#A8A8A8"/>
<path d="M156.908 125.42C158.816 125.42 160.362 124.678 160.362 123.763C160.362 122.847 158.816 122.105 156.908 122.105C155.001 122.105 153.454 122.847 153.454 123.763C153.454 124.678 155.001 125.42 156.908 125.42Z" fill="#A8A8A8"/>
<path d="M157.876 123.489H156.218L154.792 117.987C154.732 117.756 154.726 117.514 154.774 117.279C154.822 117.045 154.923 116.825 155.07 116.636C155.216 116.447 155.404 116.294 155.619 116.189C155.834 116.084 156.07 116.029 156.309 116.029C156.724 116.029 157.123 116.194 157.417 116.488C157.71 116.781 157.876 117.18 157.876 117.595V123.489Z" fill="#A8A8A8"/>
<path d="M130.52 7.47966L187.442 2.78415L186.06 23.4997L129.138 26.2617L130.52 7.47966Z" fill="#032222"/>
<path d="M187.165 2.78415L213.416 4.7176L209.824 180.385L169.619 206.21L166.856 204.277L166.718 158.289L157.875 148.345V134.535L173.349 121.001L199.6 62.721L195.869 29.4381H197.804L185.507 25.1569L187.165 2.78415Z" fill="#D6D6E3"/>
<path d="M189.652 3.06036L216.179 4.7176L212.587 180.385L169.481 206.072V158.289L160.639 148.345V134.535L176.113 121.001L202.363 62.721L197.666 29.3L188.271 25.1569L189.652 3.06036Z" fill="#032222"/>
<path d="M142.985 109.483C139.116 117.493 129.594 115.416 129.594 115.416C129.102 114.96 126.024 114.198 123.689 113.67C122.192 113.33 121.001 113.093 121.001 113.093L124.27 108.538L126.72 109.041L130.376 109.792C130.376 109.792 146.867 101.476 142.985 109.483Z" fill="url(#paint0_linear)"/>
<g opacity="0.08">
<path opacity="0.08" d="M142.985 109.483C139.116 117.493 129.594 115.416 129.594 115.416C129.102 114.96 126.024 114.198 123.689 113.67C122.192 113.33 121.001 113.093 121.001 113.093L124.27 108.538L126.72 109.041L130.376 109.792C130.376 109.792 146.867 101.476 142.985 109.483Z" fill="url(#paint1_linear)"/>
</g>
<g opacity="0.1">
<path opacity="0.1" d="M126.723 109.041L123.684 113.673C122.186 113.333 120.995 113.096 120.995 113.096L124.264 108.541L126.723 109.041Z" fill="url(#paint2_linear)"/>
</g>
<g opacity="0.1">
<path opacity="0.1" d="M121.13 141.509C117.931 142.125 112.269 143.18 106.469 144.097C103.429 144.578 100.357 145.02 97.5769 145.34C93.2995 145.834 89.7211 146.042 88.0632 145.655L87.6708 139.855L104.109 132.588L105.295 138.366H121.122C121.122 138.366 121.122 139.57 121.13 141.509Z" fill="url(#paint3_linear)"/>
</g>
<g opacity="0.1">
<path opacity="0.1" d="M117.881 120.36C106.157 113.228 100.094 93.275 100.094 93.275C100.094 93.101 100.094 92.9298 100.075 92.7613C99.8124 83.6105 113.291 81.8483 115.579 90.7284C116.323 93.6203 116.961 96.5536 117.093 98.581C117.166 99.3269 117.338 100.06 117.605 100.76C117.781 104.534 117.742 108.315 117.489 112.085C117.31 114.849 117.442 117.625 117.881 120.36Z" fill="url(#paint4_linear)"/>
</g>
<g opacity="0.05">
<path opacity="0.05" d="M117.881 120.36C117.443 117.629 117.311 114.858 117.489 112.098C117.742 108.329 117.781 104.548 117.605 100.774C117.433 96.3547 117.085 91.9824 116.751 88.5104C116.255 83.2692 113.746 78.424 109.752 74.9929C108.865 74.2333 108.074 73.6726 107.541 73.5345C106.875 73.3577 106.06 72.8274 105.253 72.1839C102.54 70.0212 105.988 74.2333 106.875 74.9929C110.87 78.424 113.379 83.2692 113.874 88.5104C114.206 91.9824 114.557 96.3547 114.728 100.774C114.904 104.548 114.865 108.329 114.612 112.098C114.435 114.858 114.566 117.629 115.005 120.36C116.491 130.422 120.921 140.426 120.921 140.426C120.921 140.426 99.2957 144.793 89.2321 145.257C97.1183 145.81 123.786 140.426 123.786 140.426C123.786 140.426 119.368 130.417 117.881 120.36Z" fill="url(#paint5_linear)"/>
</g>
<path d="M144.25 122.164C138.323 128.873 129.724 124.401 129.724 124.401C129.373 123.832 126.615 122.299 124.513 121.183C123.161 120.468 122.078 119.926 122.078 119.926L126.475 116.385L128.699 117.507L132.015 119.18C132.015 119.18 150.183 115.454 144.25 122.164Z" fill="url(#paint6_linear)"/>
<g opacity="0.1">
<path opacity="0.1" d="M128.699 117.507L124.513 121.183C123.161 120.468 122.078 119.926 122.078 119.926L126.475 116.385L128.699 117.507Z" fill="url(#paint7_linear)"/>
</g>
<path opacity="0.05" d="M85.6648 117.225C85.6648 117.225 90.6385 113.311 95.2227 116.294C99.8068 119.277 106.499 118.904 107.455 119.089" fill="url(#paint8_linear)"/>
<path opacity="0.1" d="M126.077 108.64L123.192 113.159C121.766 112.828 120.633 112.607 120.633 112.607L123.744 108.163L126.077 108.64Z" fill="black"/>
<path opacity="0.1" d="M127.958 116.902L123.974 120.492C122.689 119.794 121.658 119.266 121.658 119.266L125.842 115.811L127.958 116.902Z" fill="black"/>
</g>
<defs>
<linearGradient id="paint0_linear" x1="11933.6" y1="4456.46" x2="11933.6" y2="4118.91" gradientUnits="userSpaceOnUse">
<stop stop-color="#808080" stop-opacity="0.25"/>
<stop offset="0.54" stop-color="#808080" stop-opacity="0.12"/>
<stop offset="1" stop-color="#808080" stop-opacity="0.1"/>
</linearGradient>
<linearGradient id="paint1_linear" x1="11933.6" y1="4456.46" x2="11933.6" y2="4118.91" gradientUnits="userSpaceOnUse">
<stop stop-color="#808080" stop-opacity="0.25"/>
<stop offset="0.54" stop-color="#808080" stop-opacity="0.12"/>
<stop offset="1" stop-color="#808080" stop-opacity="0.1"/>
</linearGradient>
<linearGradient id="paint2_linear" x1="2943.52" y1="2383.88" x2="2943.52" y2="2288.53" gradientUnits="userSpaceOnUse">
<stop stop-color="#808080" stop-opacity="0.25"/>
<stop offset="0.54" stop-color="#808080" stop-opacity="0.12"/>
<stop offset="1" stop-color="#808080" stop-opacity="0.1"/>
</linearGradient>
<linearGradient id="paint3_linear" x1="14218" y1="7561.57" x2="14218" y2="6924.69" gradientUnits="userSpaceOnUse">
<stop stop-color="#808080" stop-opacity="0.25"/>
<stop offset="0.54" stop-color="#808080" stop-opacity="0.12"/>
<stop offset="1" stop-color="#808080" stop-opacity="0.1"/>
</linearGradient>
<linearGradient id="paint4_linear" x1="7916.46" y1="16661.4" x2="7916.46" y2="12111.7" gradientUnits="userSpaceOnUse">
<stop stop-color="#808080" stop-opacity="0.25"/>
<stop offset="0.54" stop-color="#808080" stop-opacity="0.12"/>
<stop offset="1" stop-color="#808080" stop-opacity="0.1"/>
</linearGradient>
<linearGradient id="paint5_linear" x1="14947" y1="41200.9" x2="14947" y2="21518.7" gradientUnits="userSpaceOnUse">
<stop stop-color="#808080" stop-opacity="0.25"/>
<stop offset="0.54" stop-color="#808080" stop-opacity="0.12"/>
<stop offset="1" stop-color="#808080" stop-opacity="0.1"/>
</linearGradient>
<linearGradient id="paint6_linear" x1="12470.6" y1="4735.65" x2="12470.6" y2="4410.64" gradientUnits="userSpaceOnUse">
<stop stop-color="#808080" stop-opacity="0.25"/>
<stop offset="0.54" stop-color="#808080" stop-opacity="0.12"/>
<stop offset="1" stop-color="#808080" stop-opacity="0.1"/>
</linearGradient>
<linearGradient id="paint7_linear" x1="3420.95" y1="2374.04" x2="3420.95" y2="2290.7" gradientUnits="userSpaceOnUse">
<stop stop-color="#808080" stop-opacity="0.25"/>
<stop offset="0.54" stop-color="#808080" stop-opacity="0.12"/>
<stop offset="1" stop-color="#808080" stop-opacity="0.1"/>
</linearGradient>
<linearGradient id="paint8_linear" x1="8669.86" y1="1928.34" x2="8669.86" y2="1872.84" gradientUnits="userSpaceOnUse">
<stop stop-color="#808080" stop-opacity="0.25"/>
<stop offset="0.54" stop-color="#808080" stop-opacity="0.12"/>
<stop offset="1" stop-color="#808080" stop-opacity="0.1"/>
</linearGradient>
<clipPath id="clip0">
<rect width="307" height="231" fill="white"/>
</clipPath>
</defs>
</svg>
