<svg width="39" height="32" viewBox="0 0 39 32" fill="none" xmlns="http://www.w3.org/2000/svg">
<g clip-path="url(#clip0)">
<path d="M14.6523 18.7618C16.8271 19.3499 20.3267 16.267 21.8047 14.652C21.6428 11.015 10.2827 7.42856 4.62287 6.08994C4.81499 6.71286 6.23983 7.78252 6.92823 8.23948C6.73865 8.59738 6.63366 9.39328 7.7304 9.71369C8.82713 10.0341 10.281 11.9939 10.8708 12.9338C7.73281 13.1978 11.4394 16.0322 13.6849 17.4165C13.1012 17.6198 12.4774 18.1737 14.6523 18.7618Z" fill="url(#paint0_linear)" fill-opacity="0.46" stroke="white" stroke-opacity="0.33"/>
<ellipse cx="18.4911" cy="15.7395" rx="8.05888" ry="5.8691" transform="rotate(-16 18.4911 15.7395)" fill="url(#paint1_linear)"/>
<ellipse rx="6.13036" ry="7.5127" transform="matrix(0.945519 -0.325568 -0.325568 -0.945519 12.3541 17.9007)" fill="url(#paint2_linear)"/>
<path d="M24.6838 13.8597C22.5764 13.7445 20.0205 16.706 19.006 18.2012C19.9076 21.0161 31.0221 22.0197 36.4666 22.1697C36.1621 21.7136 34.6396 21.1036 33.9164 20.8556C34.0153 20.5461 33.9462 19.9079 32.8785 19.8312C31.8109 19.7545 30.0774 18.4539 29.3441 17.8131C32.1542 17.1104 28.1828 15.4832 25.8458 14.7574C26.3366 14.5062 26.7912 13.9749 24.6838 13.8597Z" fill="url(#paint3_linear)" fill-opacity="0.46" stroke="white" stroke-opacity="0.33"/>
<path d="M11.2132 14.9804C11.4582 15.0259 11.6808 15.1035 11.8809 15.2132C12.0814 15.3187 12.2519 15.443 12.3924 15.586L11.9675 15.9522C11.7382 15.7255 11.4711 15.5827 11.1661 15.5238L11.0527 16.8319C11.4534 16.9962 11.7573 17.1929 11.9646 17.422C12.1722 17.6469 12.2607 17.9362 12.23 18.2901C12.2011 18.6229 12.0636 18.9002 11.8172 19.1219C11.5712 19.3393 11.2401 19.4565 10.8237 19.4733L10.7432 20.4023L10.2683 20.3634L10.3472 19.4535C10.058 19.4128 9.79897 19.328 9.56994 19.199C9.34524 19.0703 9.15526 18.919 9 18.745L9.42757 18.3473C9.71463 18.6635 10.0372 18.8469 10.3954 18.8974L10.5323 17.3176C10.1233 17.1483 9.82549 16.9564 9.63882 16.7417C9.45649 16.5274 9.37811 16.2728 9.40367 15.9779C9.42924 15.683 9.55957 15.4391 9.79468 15.2462C10.0341 15.0536 10.3485 14.9542 10.7377 14.9479L10.8199 14L11.2948 14.0388L11.2132 14.9804ZM10.6906 15.4913C10.5233 15.5073 10.3879 15.5578 10.2844 15.6426C10.1853 15.7279 10.1294 15.8442 10.1166 15.9917C10.1049 16.1265 10.1319 16.2432 10.1976 16.3419C10.2637 16.4364 10.3949 16.5342 10.5915 16.6351L10.6906 15.4913ZM10.8719 18.9173C11.2514 18.8719 11.4576 18.6597 11.4905 18.2805C11.5044 18.1205 11.4749 17.9823 11.402 17.866C11.3294 17.7455 11.1931 17.6304 10.993 17.5207L10.8719 18.9173Z" fill="#222222" fill-opacity="0.5"/>
<path d="M12.7473 20.1525L16 20.4186L15.9496 21L12.6969 20.7339L12.7473 20.1525Z" fill="#222222" fill-opacity="0.5"/>
</g>
<defs>
<linearGradient id="paint0_linear" x1="17.3022" y1="13.2201" x2="6.82706" y2="7.48677" gradientUnits="userSpaceOnUse">
<stop stop-color="white"/>
<stop offset="1" stop-color="white" stop-opacity="0"/>
</linearGradient>
<linearGradient id="paint1_linear" x1="18.4911" y1="9.87039" x2="18.4911" y2="21.6086" gradientUnits="userSpaceOnUse">
<stop stop-color="#469985"/>
<stop offset="1" stop-color="#3D7D6E"/>
</linearGradient>
<linearGradient id="paint2_linear" x1="6.13036" y1="0" x2="6.13036" y2="15.0254" gradientUnits="userSpaceOnUse">
<stop offset="0.340441" stop-color="#219C7F"/>
<stop offset="1" stop-color="#55D7B8"/>
</linearGradient>
<linearGradient id="paint3_linear" x1="23.2999" y1="15.6628" x2="31.3565" y2="23.6623" gradientUnits="userSpaceOnUse">
<stop stop-color="white"/>
<stop offset="1" stop-color="white" stop-opacity="0"/>
</linearGradient>
<clipPath id="clip0">
<rect width="39" height="32" fill="white"/>
</clipPath>
</defs>
</svg>
